<svg width="32" height="32" viewBox="0 0 32 32" fill="none" xmlns="http://www.w3.org/2000/svg">
<path d="M2.28592 8.00001H29.7145C30.0176 8.00001 30.3083 7.8796 30.5226 7.66528C30.7369 7.45095 30.8574 7.16026 30.8574 6.85715C30.8574 6.55405 30.7369 6.26336 30.5226 6.04903C30.3083 5.8347 30.0176 5.71429 29.7145 5.71429H2.28592C1.98282 5.71429 1.69213 5.8347 1.4778 6.04903C1.26347 6.26336 1.14307 6.55405 1.14307 6.85715C1.14307 7.16026 1.26347 7.45095 1.4778 7.66528C1.69213 7.8796 1.98282 8.00001 2.28592 8.00001Z" fill="#171B1E"/>
<path d="M29.7145 14.8571H2.28592C1.98282 14.8571 1.69213 14.9775 1.4778 15.1919C1.26347 15.4062 1.14307 15.6969 1.14307 16C1.14307 16.3031 1.26347 16.5938 1.4778 16.8081C1.69213 17.0224 1.98282 17.1428 2.28592 17.1428H29.7145C30.0176 17.1428 30.3083 17.0224 30.5226 16.8081C30.7369 16.5938 30.8574 16.3031 30.8574 16C30.8574 15.6969 30.7369 15.4062 30.5226 15.1919C30.3083 14.9775 30.0176 14.8571 29.7145 14.8571Z" fill="#171B1E"/>
<path d="M29.7145 24H2.28592C1.98282 24 1.69213 24.1204 1.4778 24.3347C1.26347 24.5491 1.14307 24.8397 1.14307 25.1429C1.14307 25.446 1.26347 25.7366 1.4778 25.951C1.69213 26.1653 1.98282 26.2857 2.28592 26.2857H29.7145C30.0176 26.2857 30.3083 26.1653 30.5226 25.951C30.7369 25.7366 30.8574 25.446 30.8574 25.1429C30.8574 24.8397 30.7369 24.5491 30.5226 24.3347C30.3083 24.1204 30.0176 24 29.7145 24Z" fill="#171B1E"/>
</svg>
