<svg width="32" height="32" viewBox="0 0 32 32" fill="none" xmlns="http://www.w3.org/2000/svg">
<path d="M25.8414 3.6366H23.3774V2.28574C23.3774 1.98264 23.2569 1.69195 23.0426 1.47762C22.8283 1.26329 22.5376 1.14288 22.2345 1.14288C21.9314 1.14288 21.6407 1.26329 21.4264 1.47762C21.212 1.69195 21.0916 1.98264 21.0916 2.28574V3.6366H10.9088V2.28574C10.9088 1.98264 10.7884 1.69195 10.574 1.47762C10.3597 1.26329 10.069 1.14288 9.76592 1.14288C9.46282 1.14288 9.17213 1.26329 8.9578 1.47762C8.74347 1.69195 8.62307 1.98264 8.62307 2.28574V3.6366H6.15907C4.8292 3.63811 3.55424 4.16707 2.61389 5.10742C1.67353 6.04778 1.14458 7.32274 1.14307 8.6526V25.8412C1.14458 27.171 1.67353 28.446 2.61389 29.3863C3.55424 30.3267 4.8292 30.8557 6.15907 30.8572H25.8414C27.1712 30.8557 28.4462 30.3267 29.3865 29.3863C30.3269 28.446 30.8558 27.171 30.8574 25.8412V8.6526C30.8558 7.32274 30.3269 6.04778 29.3865 5.10742C28.4462 4.16707 27.1712 3.63811 25.8414 3.6366ZM6.15907 5.92231H8.62307V7.27317C8.62307 7.57627 8.74347 7.86696 8.9578 8.08129C9.17213 8.29562 9.46282 8.41603 9.76592 8.41603C10.069 8.41603 10.3597 8.29562 10.574 8.08129C10.7884 7.86696 10.9088 7.57627 10.9088 7.27317V5.92231H21.0916V7.27317C21.0916 7.57627 21.212 7.86696 21.4264 8.08129C21.6407 8.29562 21.9314 8.41603 22.2345 8.41603C22.5376 8.41603 22.8283 8.29562 23.0426 8.08129C23.2569 7.86696 23.3774 7.57627 23.3774 7.27317V5.92231H25.8414C26.5653 5.92292 27.2594 6.21077 27.7713 6.72266C28.2832 7.23456 28.571 7.92867 28.5716 8.6526V11.1166H3.42878V8.6526C3.42939 7.92867 3.71723 7.23456 4.22913 6.72266C4.74103 6.21077 5.43514 5.92292 6.15907 5.92231ZM25.8414 28.5715H6.15907C5.43523 28.5705 4.7413 28.2826 4.22947 27.7708C3.71763 27.2589 3.42969 26.565 3.42878 25.8412V13.4023H28.5716V25.8412C28.5707 26.565 28.2828 27.2589 27.771 27.7708C27.2591 28.2826 26.5652 28.5705 25.8414 28.5715Z" fill="#717579"/>
</svg>
