<svg width="32" height="32" viewBox="0 0 32 32" fill="none" xmlns="http://www.w3.org/2000/svg">
<path d="M26.5214 3.42859H5.47907C4.32964 3.4304 3.22782 3.88781 2.41505 4.70058C1.60229 5.51334 1.14488 6.61517 1.14307 7.76459V24.2354C1.14488 25.3849 1.60229 26.4867 2.41505 27.2995C3.22782 28.1122 4.32964 28.5696 5.47907 28.5714H26.5214C27.6708 28.5696 28.7726 28.1122 29.5854 27.2995C30.3981 26.4867 30.8555 25.3849 30.8574 24.2354V7.76459C30.8555 6.61517 30.3981 5.51334 29.5854 4.70058C28.7726 3.88781 27.6708 3.4304 26.5214 3.42859ZM5.47907 5.7143H26.5214C27.0159 5.71592 27.4931 5.8964 27.8649 6.22242C28.2367 6.54843 28.478 6.99797 28.5442 7.48802L18.4402 15.9074C17.7555 16.4789 16.892 16.7919 16.0002 16.7919C15.1084 16.7919 14.2449 16.4789 13.5602 15.9074L3.45621 7.48802C3.52243 6.99797 3.76373 6.54843 4.13554 6.22242C4.50735 5.8964 4.98457 5.71592 5.47907 5.7143ZM26.5214 26.2857H5.47907C4.93585 26.2839 4.4154 26.0673 4.03129 25.6832C3.64718 25.2991 3.43059 24.7787 3.42878 24.2354V10.44L12.0962 17.6629C13.1921 18.5764 14.5736 19.0766 16.0002 19.0766C17.4269 19.0766 18.8084 18.5764 19.9042 17.6629L28.5716 10.44V24.2354C28.5698 24.7787 28.3532 25.2991 27.9691 25.6832C27.585 26.0673 27.0646 26.2839 26.5214 26.2857Z" fill="#717579"/>
</svg>
