<svg width="32" height="32" viewBox="0 0 32 32" fill="none" xmlns="http://www.w3.org/2000/svg">
<path d="M26.2857 18.672V11.4286C26.2857 8.70066 25.202 6.08444 23.2731 4.1555C21.3441 2.22655 18.7279 1.14288 16 1.14288C13.272 1.14288 10.6558 2.22655 8.72687 4.1555C6.79792 6.08444 5.71425 8.70066 5.71425 11.4286V18.672C4.89387 19.0613 4.23038 19.7182 3.83286 20.5347C3.43533 21.3511 3.32743 22.2785 3.5269 23.1644C3.72636 24.0503 4.22132 24.8419 4.9304 25.4092C5.63947 25.9765 6.52047 26.2856 7.42853 26.2857H10.4C10.6623 27.5775 11.3631 28.7389 12.3837 29.573C13.4043 30.4072 14.6818 30.8629 16 30.8629C17.3181 30.8629 18.5957 30.4072 19.6163 29.573C20.6368 28.7389 21.3377 27.5775 21.6 26.2857H24.5714C25.4795 26.2856 26.3605 25.9765 27.0695 25.4092C27.7786 24.8419 28.2736 24.0503 28.473 23.1644C28.6725 22.2785 28.5646 21.3511 28.1671 20.5347C27.7695 19.7182 27.1061 19.0613 26.2857 18.672ZM16 28.5715C15.2934 28.5685 14.605 28.3474 14.0289 27.9382C13.4528 27.5291 13.0172 26.9519 12.7817 26.2857H19.2182C18.9827 26.9519 18.5471 27.5291 17.971 27.9382C17.395 28.3474 16.7065 28.5685 16 28.5715ZM24.5714 24H7.42853C7.00341 24.0005 6.59329 23.8429 6.27779 23.558C5.9623 23.273 5.76393 22.881 5.72121 22.458C5.67848 22.0351 5.79444 21.6113 6.04658 21.269C6.29873 20.9267 6.66905 20.6903 7.08568 20.6057C7.34382 20.553 7.57583 20.4128 7.74243 20.2087C7.90904 20.0046 8.00002 19.7492 7.99996 19.4857V11.4286C7.99996 9.30687 8.84282 7.27203 10.3431 5.77174C11.8434 4.27145 13.8782 3.4286 16 3.4286C18.1217 3.4286 20.1565 4.27145 21.6568 5.77174C23.1571 7.27203 24 9.30687 24 11.4286V19.4857C23.9999 19.7492 24.0909 20.0046 24.2575 20.2087C24.4241 20.4128 24.6561 20.553 24.9142 20.6057C25.3309 20.6903 25.7012 20.9267 25.9533 21.269C26.2055 21.6113 26.3214 22.0351 26.2787 22.458C26.236 22.881 26.0376 23.273 25.7221 23.558C25.4066 23.8429 24.9965 24.0005 24.5714 24Z" fill="#717579"/>
</svg>
