<svg width="245" height="57" viewBox="0 0 245 57" fill="none" xmlns="http://www.w3.org/2000/svg">
<path d="M78.8242 14.8379H73.1992V18.6465H79.8008V21H70.2695V6.78125H79.7812V9.1543H73.1992V12.543H78.8242V14.8379ZM87.2715 13.0801C86.8874 13.028 86.5488 13.002 86.2559 13.002C85.1882 13.002 84.4883 13.3633 84.1562 14.0859V21H81.334V10.4336H84L84.0781 11.6934C84.6445 10.7233 85.429 10.2383 86.4316 10.2383C86.7441 10.2383 87.0371 10.2806 87.3105 10.3652L87.2715 13.0801ZM98.0039 17.1621L99.3906 10.4336H102.115L99.4199 21H97.0566L95.0547 14.3496L93.0527 21H90.6992L88.0039 10.4336H90.7285L92.1055 17.1523L94.0391 10.4336H96.0801L98.0039 17.1621ZM106.5 21H103.668V10.4336H106.5V21ZM103.502 7.69922C103.502 7.27604 103.642 6.92773 103.922 6.6543C104.208 6.38086 104.596 6.24414 105.084 6.24414C105.566 6.24414 105.95 6.38086 106.236 6.6543C106.523 6.92773 106.666 7.27604 106.666 7.69922C106.666 8.12891 106.52 8.48047 106.227 8.75391C105.94 9.02734 105.559 9.16406 105.084 9.16406C104.609 9.16406 104.225 9.02734 103.932 8.75391C103.645 8.48047 103.502 8.12891 103.502 7.69922ZM111.432 10.4336L111.52 11.6543C112.275 10.7103 113.287 10.2383 114.557 10.2383C115.676 10.2383 116.51 10.5671 117.057 11.2246C117.604 11.8822 117.883 12.8652 117.896 14.1738V21H115.074V14.2422C115.074 13.6432 114.944 13.2103 114.684 12.9434C114.423 12.6699 113.99 12.5332 113.385 12.5332C112.59 12.5332 111.995 12.8717 111.598 13.5488V21H108.775V10.4336H111.432ZM132.584 17.2695C132.584 16.7161 132.389 16.293 131.998 16C131.607 15.7005 130.904 15.388 129.889 15.0625C128.873 14.7305 128.069 14.4049 127.477 14.0859C125.862 13.2135 125.055 12.0384 125.055 10.5605C125.055 9.79232 125.27 9.10872 125.699 8.50977C126.135 7.9043 126.757 7.43229 127.564 7.09375C128.378 6.75521 129.29 6.58594 130.299 6.58594C131.314 6.58594 132.219 6.77148 133.014 7.14258C133.808 7.50716 134.423 8.02474 134.859 8.69531C135.302 9.36589 135.523 10.1276 135.523 10.9805H132.594C132.594 10.3294 132.389 9.82487 131.979 9.4668C131.568 9.10221 130.992 8.91992 130.25 8.91992C129.534 8.91992 128.977 9.07292 128.58 9.37891C128.183 9.67839 127.984 10.0755 127.984 10.5703C127.984 11.0326 128.215 11.4199 128.678 11.7324C129.146 12.0449 129.833 12.3379 130.738 12.6113C132.405 13.1126 133.619 13.7344 134.381 14.4766C135.143 15.2188 135.523 16.1432 135.523 17.25C135.523 18.4805 135.058 19.4473 134.127 20.1504C133.196 20.847 131.943 21.1953 130.367 21.1953C129.273 21.1953 128.277 20.9967 127.379 20.5996C126.48 20.196 125.794 19.6458 125.318 18.9492C124.85 18.2526 124.615 17.4453 124.615 16.5273H127.555C127.555 18.0964 128.492 18.8809 130.367 18.8809C131.064 18.8809 131.607 18.7409 131.998 18.4609C132.389 18.1745 132.584 17.7773 132.584 17.2695ZM139.977 10.4336L140.064 11.6152C140.813 10.6973 141.826 10.2383 143.102 10.2383C144.462 10.2383 145.396 10.7754 145.904 11.8496C146.646 10.7754 147.704 10.2383 149.078 10.2383C150.224 10.2383 151.077 10.5736 151.637 11.2441C152.197 11.9082 152.477 12.9108 152.477 14.252V21H149.645V14.2617C149.645 13.6628 149.527 13.2266 149.293 12.9531C149.059 12.6732 148.645 12.5332 148.053 12.5332C147.206 12.5332 146.62 12.9368 146.295 13.7441L146.305 21H143.482V14.2715C143.482 13.6595 143.362 13.2168 143.121 12.9434C142.88 12.6699 142.47 12.5332 141.891 12.5332C141.09 12.5332 140.51 12.8652 140.152 13.5293V21H137.33V10.4336H139.977ZM157.633 21H154.801V10.4336H157.633V21ZM154.635 7.69922C154.635 7.27604 154.775 6.92773 155.055 6.6543C155.341 6.38086 155.729 6.24414 156.217 6.24414C156.699 6.24414 157.083 6.38086 157.369 6.6543C157.656 6.92773 157.799 7.27604 157.799 7.69922C157.799 8.12891 157.652 8.48047 157.359 8.75391C157.073 9.02734 156.692 9.16406 156.217 9.16406C155.742 9.16406 155.357 9.02734 155.064 8.75391C154.778 8.48047 154.635 8.12891 154.635 7.69922ZM163.346 7.83594V10.4336H165.152V12.5039H163.346V17.7773C163.346 18.168 163.421 18.4479 163.57 18.6172C163.72 18.7865 164.007 18.8711 164.43 18.8711C164.742 18.8711 165.019 18.8483 165.26 18.8027V20.9414C164.706 21.1107 164.137 21.1953 163.551 21.1953C161.572 21.1953 160.562 20.196 160.523 18.1973V12.5039H158.98V10.4336H160.523V7.83594H163.346ZM169.479 11.5859C170.227 10.6875 171.168 10.2383 172.301 10.2383C174.592 10.2383 175.755 11.5697 175.787 14.2324V21H172.965V14.3105C172.965 13.7051 172.835 13.2591 172.574 12.9727C172.314 12.6797 171.881 12.5332 171.275 12.5332C170.449 12.5332 169.85 12.8522 169.479 13.4902V21H166.656V6H169.479V11.5859Z" fill="#171B1E"/>
<path d="M227 26L233 32L239 26" fill="#D7D7D7"/>
<path d="M73.1074 44.5635C71.9818 44.2399 71.1615 43.8434 70.6465 43.374C70.1361 42.9001 69.8809 42.3167 69.8809 41.624C69.8809 40.8402 70.193 40.193 70.8174 39.6826C71.4463 39.1676 72.262 38.9102 73.2646 38.9102C73.9482 38.9102 74.5566 39.0423 75.0898 39.3066C75.6276 39.571 76.0423 39.9355 76.334 40.4004C76.6302 40.8652 76.7783 41.3734 76.7783 41.9248H75.459C75.459 41.3232 75.2676 40.8516 74.8848 40.5098C74.502 40.1634 73.9619 39.9902 73.2646 39.9902C72.6175 39.9902 72.1117 40.1338 71.7471 40.4209C71.387 40.7035 71.207 41.0977 71.207 41.6035C71.207 42.0091 71.3779 42.3532 71.7197 42.6357C72.0661 42.9137 72.6517 43.1689 73.4766 43.4014C74.306 43.6338 74.9531 43.8913 75.418 44.1738C75.8874 44.4518 76.2337 44.7777 76.457 45.1514C76.6849 45.5251 76.7988 45.9648 76.7988 46.4707C76.7988 47.2773 76.4844 47.9245 75.8555 48.4121C75.2266 48.8952 74.3857 49.1367 73.333 49.1367C72.6494 49.1367 72.0114 49.0068 71.4189 48.7471C70.8265 48.4827 70.3685 48.1227 70.0449 47.667C69.7259 47.2113 69.5664 46.694 69.5664 46.1152H70.8857C70.8857 46.7168 71.1068 47.193 71.5488 47.5439C71.9954 47.8903 72.5902 48.0635 73.333 48.0635C74.0257 48.0635 74.5566 47.9222 74.9258 47.6396C75.2949 47.3571 75.4795 46.972 75.4795 46.4844C75.4795 45.9967 75.3086 45.6208 74.9668 45.3564C74.625 45.0876 74.0052 44.8232 73.1074 44.5635ZM82.8555 48.2686C82.3633 48.8473 81.641 49.1367 80.6885 49.1367C79.9001 49.1367 79.2985 48.9089 78.8838 48.4531C78.4736 47.9928 78.2663 47.3138 78.2617 46.416V41.6035H79.5264V46.3818C79.5264 47.5029 79.9821 48.0635 80.8936 48.0635C81.8597 48.0635 82.5023 47.7035 82.8213 46.9834V41.6035H84.0859V49H82.8828L82.8555 48.2686ZM92.2617 45.3838C92.2617 46.5094 92.0042 47.4163 91.4893 48.1045C90.9743 48.7926 90.277 49.1367 89.3975 49.1367C88.4997 49.1367 87.7933 48.8519 87.2783 48.2822V51.8438H86.0137V41.6035H87.1689L87.2305 42.4238C87.7454 41.7858 88.4609 41.4668 89.377 41.4668C90.2656 41.4668 90.9674 41.8018 91.4824 42.4717C92.002 43.1416 92.2617 44.0736 92.2617 45.2676V45.3838ZM90.9971 45.2402C90.9971 44.4062 90.8193 43.7477 90.4639 43.2646C90.1084 42.7816 89.6208 42.54 89.001 42.54C88.2354 42.54 87.6611 42.8796 87.2783 43.5586V47.0928C87.6566 47.7673 88.2354 48.1045 89.0146 48.1045C89.6208 48.1045 90.1016 47.8652 90.457 47.3867C90.8171 46.9036 90.9971 46.1882 90.9971 45.2402ZM96.9443 49.1367C95.9417 49.1367 95.126 48.8086 94.4971 48.1523C93.8682 47.4915 93.5537 46.6097 93.5537 45.5068V45.2744C93.5537 44.5407 93.6927 43.8867 93.9707 43.3125C94.2533 42.7337 94.6452 42.2826 95.1465 41.959C95.6523 41.6309 96.1992 41.4668 96.7871 41.4668C97.7487 41.4668 98.4961 41.7835 99.0293 42.417C99.5625 43.0505 99.8291 43.9574 99.8291 45.1377V45.6641H94.8184C94.8366 46.3932 95.0485 46.9834 95.4541 47.4346C95.8643 47.8812 96.3838 48.1045 97.0127 48.1045C97.4593 48.1045 97.8376 48.0133 98.1475 47.8311C98.4574 47.6488 98.7285 47.4072 98.9609 47.1064L99.7334 47.708C99.1136 48.6605 98.1839 49.1367 96.9443 49.1367ZM96.7871 42.5059C96.2767 42.5059 95.8483 42.6927 95.502 43.0664C95.1556 43.4355 94.9414 43.9551 94.8594 44.625H98.5645V44.5293C98.528 43.8867 98.3548 43.39 98.0449 43.0391C97.735 42.6836 97.3158 42.5059 96.7871 42.5059ZM104.874 42.7383C104.683 42.7064 104.475 42.6904 104.252 42.6904C103.423 42.6904 102.86 43.0436 102.563 43.75V49H101.299V41.6035H102.529L102.55 42.458C102.965 41.7972 103.552 41.4668 104.313 41.4668C104.56 41.4668 104.746 41.4987 104.874 41.5625V42.7383ZM115.21 46.4023H111.04L110.104 49H108.75L112.551 39.0469H113.699L117.507 49H116.16L115.21 46.4023ZM111.437 45.3223H114.82L113.125 40.667L111.437 45.3223ZM118.341 45.2402C118.341 44.1055 118.61 43.194 119.147 42.5059C119.685 41.8132 120.389 41.4668 121.26 41.4668C122.126 41.4668 122.812 41.763 123.317 42.3555V38.5H124.582V49H123.42L123.358 48.207C122.853 48.8268 122.148 49.1367 121.246 49.1367C120.389 49.1367 119.69 48.7858 119.147 48.084C118.61 47.3822 118.341 46.4661 118.341 45.3359V45.2402ZM119.605 45.3838C119.605 46.2223 119.779 46.8786 120.125 47.3525C120.471 47.8265 120.95 48.0635 121.561 48.0635C122.363 48.0635 122.948 47.7035 123.317 46.9834V43.5859C122.939 42.8887 122.358 42.54 121.574 42.54C120.954 42.54 120.471 42.7793 120.125 43.2578C119.779 43.7363 119.605 44.445 119.605 45.3838ZM127.74 41.6035L127.774 42.4238C128.317 41.7858 129.048 41.4668 129.969 41.4668C131.003 41.4668 131.707 41.8633 132.081 42.6562C132.327 42.3008 132.646 42.0137 133.038 41.7949C133.435 41.5762 133.902 41.4668 134.439 41.4668C136.062 41.4668 136.887 42.3258 136.914 44.0439V49H135.649V44.1191C135.649 43.5905 135.529 43.1963 135.287 42.9365C135.046 42.6722 134.64 42.54 134.07 42.54C133.601 42.54 133.211 42.6813 132.901 42.9639C132.591 43.2419 132.411 43.6178 132.361 44.0918V49H131.09V44.1533C131.09 43.0778 130.563 42.54 129.511 42.54C128.681 42.54 128.114 42.8932 127.809 43.5996V49H126.544V41.6035H127.74ZM140.202 49H138.938V41.6035H140.202V49ZM138.835 39.6416C138.835 39.4365 138.896 39.2633 139.02 39.1221C139.147 38.9808 139.334 38.9102 139.58 38.9102C139.826 38.9102 140.013 38.9808 140.141 39.1221C140.268 39.2633 140.332 39.4365 140.332 39.6416C140.332 39.8467 140.268 40.0176 140.141 40.1543C140.013 40.291 139.826 40.3594 139.58 40.3594C139.334 40.3594 139.147 40.291 139.02 40.1543C138.896 40.0176 138.835 39.8467 138.835 39.6416ZM143.429 41.6035L143.47 42.5332C144.035 41.8223 144.773 41.4668 145.685 41.4668C147.248 41.4668 148.036 42.3486 148.05 44.1123V49H146.785V44.1055C146.781 43.5723 146.658 43.1781 146.416 42.9229C146.179 42.6676 145.808 42.54 145.302 42.54C144.892 42.54 144.532 42.6494 144.222 42.8682C143.912 43.0869 143.67 43.374 143.497 43.7295V49H142.232V41.6035H143.429Z" fill="#717579"/>
<rect width="57" height="57" rx="14" fill="#C4C4C4"/>
</svg>
