<svg width="32" height="32" viewBox="0 0 32 32" fill="none" xmlns="http://www.w3.org/2000/svg">
<path d="M29.7956 28.1795L25.143 23.5269C27.4136 20.8394 28.5579 17.3785 28.3367 13.8672C28.1155 10.3559 26.546 7.06595 23.9561 4.68467C21.3662 2.30339 17.9563 1.01505 14.4388 1.08882C10.9213 1.16259 7.56844 2.59277 5.08067 5.08055C2.59289 7.56832 1.16271 10.9212 1.08894 14.4387C1.01517 17.9562 2.30351 21.3661 4.68479 23.956C7.06608 26.5459 10.3561 28.1154 13.8673 28.3366C17.3786 28.5577 20.8396 27.4135 23.527 25.1429L28.1796 29.7955C28.3951 30.0036 28.6838 30.1188 28.9835 30.1162C29.2831 30.1136 29.5698 29.9934 29.7817 29.7815C29.9936 29.5697 30.1138 29.283 30.1164 28.9834C30.119 28.6837 30.0038 28.395 29.7956 28.1795ZM14.7533 26.0778C12.5135 26.0778 10.324 25.4136 8.46171 24.1692C6.59939 22.9249 5.1479 21.1562 4.29077 19.0869C3.43363 17.0176 3.20937 14.7406 3.64633 12.5439C4.08329 10.3471 5.16185 8.32927 6.74562 6.7455C8.32939 5.16173 10.3472 4.08317 12.544 3.64621C14.7407 3.20925 17.0177 3.43351 19.087 4.29064C21.1563 5.14777 22.925 6.59927 24.1693 8.46159C25.4137 10.3239 26.0779 12.5134 26.0779 14.7532C26.0746 17.7556 24.8804 20.6341 22.7573 22.7572C20.6343 24.8802 17.7557 26.0744 14.7533 26.0778Z" fill="#717579"/>
</svg>
