<svg width="32" height="32" viewBox="0 0 32 32" fill="none" xmlns="http://www.w3.org/2000/svg">
<path d="M8.63101 30.2732C8.20357 30.2721 7.7815 30.1779 7.3942 29.9971C7.0069 29.8162 6.66367 29.5532 6.38843 29.2261C6.11319 28.8991 5.91255 28.516 5.80049 28.1035C5.68843 27.691 5.66765 27.2591 5.73958 26.8377L6.88244 20.1566L2.03101 15.4286C1.63769 15.0464 1.35929 14.5617 1.22735 14.0293C1.09541 13.497 1.1152 12.9384 1.28448 12.4167C1.45376 11.8951 1.76577 11.4313 2.18515 11.0779C2.60452 10.7245 3.1145 10.4956 3.65729 10.4172L10.3659 9.4423L13.3716 3.3623C13.6139 2.87112 13.9888 2.45754 14.454 2.16835C14.9191 1.87915 15.4559 1.72589 16.0036 1.72589C16.5513 1.72589 17.0881 1.87915 17.5532 2.16835C18.0183 2.45754 18.3933 2.87112 18.6356 3.3623L21.6367 9.4423L28.3453 10.4172C28.8879 10.4959 29.3976 10.7251 29.8167 11.0786C30.2358 11.4322 30.5475 11.896 30.7165 12.4176C30.8855 12.9392 30.9051 13.4977 30.7731 14.0298C30.641 14.562 30.3626 15.0465 29.9693 15.4286L25.1144 20.1612L26.2573 26.8423C26.3487 27.3815 26.2875 27.9356 26.0808 28.4419C25.8741 28.9482 25.53 29.3867 25.0873 29.7079C24.6447 30.0291 24.1211 30.2203 23.5756 30.2598C23.0301 30.2993 22.4845 30.1855 22.0002 29.9314L16.0002 26.7783L9.99901 29.9314C9.57787 30.1557 9.10811 30.273 8.63101 30.2732ZM16.0002 4.01145C15.8785 4.00956 15.7588 4.04272 15.6555 4.10695C15.5521 4.17119 15.4695 4.2638 15.4173 4.37373L12.151 10.992C12.069 11.1582 11.9478 11.3019 11.7979 11.4108C11.648 11.5197 11.4738 11.5905 11.2904 11.6172L3.98644 12.6789C3.86637 12.6962 3.75357 12.7469 3.66084 12.8251C3.56811 12.9033 3.49915 13.006 3.46179 13.1214C3.42442 13.2368 3.42015 13.3604 3.44946 13.4781C3.47876 13.5959 3.54047 13.703 3.62758 13.7874L8.91444 18.9383C9.04698 19.0677 9.14609 19.2274 9.20322 19.4035C9.26036 19.5797 9.27382 19.7672 9.24244 19.9497L7.99215 27.224C7.96979 27.3438 7.98236 27.4675 8.02836 27.5804C8.07435 27.6933 8.15184 27.7905 8.25158 27.8606C8.34959 27.9327 8.46599 27.9755 8.58734 27.9842C8.70868 27.9929 8.83001 27.9671 8.93729 27.9097L15.471 24.4812C15.6347 24.3945 15.8172 24.3492 16.0024 24.3492C16.1877 24.3492 16.3701 24.3945 16.5339 24.4812L23.0664 27.9097C23.1738 27.9669 23.2951 27.9927 23.4164 27.984C23.5377 27.9753 23.6541 27.9325 23.7522 27.8606C23.8519 27.7905 23.9294 27.6933 23.9754 27.5804C24.0214 27.4675 24.0339 27.3438 24.0116 27.224L22.7636 19.9497C22.7322 19.7672 22.7457 19.5797 22.8028 19.4035C22.8599 19.2274 22.959 19.0677 23.0916 18.9383L28.3762 13.7874C28.4633 13.703 28.525 13.5959 28.5543 13.4781C28.5836 13.3604 28.5793 13.2368 28.5419 13.1214C28.5046 13.006 28.4356 12.9033 28.3429 12.8251C28.2502 12.7469 28.1374 12.6962 28.0173 12.6789L20.7133 11.6172C20.5299 11.5905 20.3558 11.5197 20.2058 11.4108C20.0559 11.3019 19.9347 11.1582 19.8527 10.992L16.583 4.37373C16.5308 4.2638 16.4482 4.17119 16.3448 4.10695C16.2415 4.04272 16.1218 4.00956 16.0002 4.01145Z" fill="#717579"/>
</svg>
