<svg width="28" height="28" viewBox="0 0 28 28" fill="none" xmlns="http://www.w3.org/2000/svg">
<path d="M16 1C15.7348 1 15.4804 1.10536 15.2929 1.29289C15.1054 1.48043 15 1.73478 15 2V12C15 12.2652 15.1054 12.5196 15.2929 12.7071C15.4804 12.8946 15.7348 13 16 13H26C26.2652 13 26.5196 12.8946 26.7071 12.7071C26.8946 12.5196 27 12.2652 27 12C26.9966 9.08368 25.8365 6.28778 23.7744 4.22563C21.7122 2.16347 18.9163 1.00344 16 1ZM17 11V3.056C19.0278 3.28581 20.9177 4.19661 22.3608 5.63955C23.8039 7.08249 24.7149 8.97225 24.945 11H17Z" fill="#717579"/>
<path d="M22.0001 15.077H13.0001V6C13.0001 5.73478 12.8948 5.48043 12.7072 5.29289C12.5197 5.10536 12.2653 5 12.0001 5C10.5287 4.9994 9.07208 5.29401 7.71655 5.86641C6.36101 6.4388 5.13409 7.27734 4.10842 8.33239C3.08275 9.38743 2.27918 10.6375 1.74527 12.0087C1.21136 13.3798 0.95798 14.8442 1.00012 16.315C1.11148 19.1101 2.27054 21.761 4.2469 23.7407C6.22325 25.7204 8.87218 26.8839 11.6671 27H12.0041C14.9061 26.999 17.6902 25.8513 19.7498 23.8069C21.8094 21.7624 22.9777 18.9869 23.0001 16.085C23.0012 15.953 22.9761 15.8221 22.9263 15.6999C22.8765 15.5776 22.803 15.4664 22.7101 15.3727C22.6171 15.279 22.5065 15.2046 22.3847 15.1539C22.2628 15.1031 22.1321 15.077 22.0001 15.077ZM18.2401 22.483C17.379 23.3185 16.3585 23.972 15.2393 24.4045C14.1201 24.8369 12.9253 25.0395 11.7261 25C9.43969 24.9051 7.27269 23.9533 5.65594 22.3337C4.03918 20.7142 3.09108 18.5456 3.00012 16.259C2.93605 14.0014 3.72309 11.8023 5.20504 10.0981C6.687 8.39382 8.75554 7.30903 11.0001 7.059V16.081C11.0001 16.3462 11.1055 16.6006 11.293 16.7881C11.4805 16.9756 11.7349 17.081 12.0001 17.081H20.9331C20.6902 19.1398 19.738 21.0498 18.2401 22.483Z" fill="#717579"/>
</svg>
