<svg width="28" height="28" viewBox="0 0 28 28" fill="none" xmlns="http://www.w3.org/2000/svg">
<path d="M14 13C15.1867 13 16.3467 12.6481 17.3334 11.9888C18.3201 11.3295 19.0891 10.3925 19.5433 9.2961C19.9974 8.19975 20.1162 6.99335 19.8847 5.82946C19.6532 4.66558 19.0817 3.59648 18.2426 2.75736C17.4035 1.91825 16.3344 1.3468 15.1705 1.11529C14.0066 0.88378 12.8003 1.0026 11.7039 1.45673C10.6075 1.91085 9.67047 2.67989 9.01118 3.66658C8.35189 4.65328 8 5.81332 8 7C8.00159 8.59082 8.63424 10.116 9.75911 11.2409C10.884 12.3658 12.4092 12.9984 14 13ZM14 3C14.7911 3 15.5645 3.2346 16.2223 3.67412C16.8801 4.11365 17.3928 4.73837 17.6955 5.46927C17.9983 6.20017 18.0775 7.00444 17.9231 7.78036C17.7688 8.55629 17.3878 9.26902 16.8284 9.82843C16.269 10.3878 15.5563 10.7688 14.7804 10.9231C14.0044 11.0775 13.2002 10.9983 12.4693 10.6955C11.7384 10.3928 11.1136 9.88008 10.6741 9.22228C10.2346 8.56449 10 7.79113 10 7C10 5.93914 10.4214 4.92172 11.1716 4.17158C11.9217 3.42143 12.9391 3 14 3Z" fill="#717579"/>
<path d="M24.9762 22.142C24.0345 20.0167 22.4961 18.2105 20.5477 16.9426C18.5993 15.6748 16.3247 14.9999 14.0002 14.9999C11.6756 14.9999 9.40099 15.6748 7.45259 16.9426C5.50419 18.2105 3.96578 20.0167 3.02416 22.142C2.78831 22.6701 2.6887 23.2489 2.73448 23.8254C2.78025 24.402 2.96994 24.9578 3.28616 25.442C3.59717 25.9214 4.02336 26.3151 4.52576 26.5873C5.02817 26.8594 5.59077 27.0013 6.16216 27H21.8382C22.4097 27.0011 22.9725 26.8589 23.4749 26.5864C23.9773 26.3139 24.4034 25.9197 24.7142 25.44C25.03 24.956 25.2195 24.4006 25.2653 23.8244C25.3111 23.2483 25.2117 22.6698 24.9762 22.142ZM23.0382 24.349C22.9098 24.5505 22.7323 24.7159 22.5224 24.8298C22.3125 24.9437 22.077 25.0023 21.8382 25H6.16216C5.92333 25.0023 5.68785 24.9437 5.47791 24.8298C5.26797 24.7159 5.09048 24.5505 4.96216 24.349C4.82655 24.1442 4.74538 23.9081 4.72631 23.6631C4.70724 23.4182 4.75089 23.1724 4.85316 22.949C5.63641 21.1763 6.91792 19.6693 8.54183 18.6114C10.1657 17.5536 12.0621 16.9904 14.0002 16.9904C15.9382 16.9904 17.8346 17.5536 19.4585 18.6114C21.0824 19.6693 22.3639 21.1763 23.1472 22.949C23.2494 23.1724 23.2931 23.4182 23.274 23.6631C23.2549 23.9081 23.1738 24.1442 23.0382 24.349Z" fill="#717579"/>
</svg>
