<svg width="193" height="55" viewBox="0 0 193 55" fill="none" xmlns="http://www.w3.org/2000/svg">
<path d="M75.6665 29.0667H77.5776V10.9778H75.5332V10.0445H80.6443V19.3778C81.8295 18.2519 83.1925 17.6889 84.7332 17.6889C85.7999 17.6889 86.7332 17.9556 87.5332 18.4889C88.5702 19.2001 89.0888 20.2963 89.0888 21.7778V29.0667H90.9999V30.0001H84.0665V29.0667H86.0221V21.5556C86.0221 20.6371 85.9184 20.0149 85.711 19.6889C85.5332 19.3334 85.311 19.0963 85.0443 18.9778C84.8073 18.8593 84.4517 18.8001 83.9776 18.8001C83.5036 18.8001 82.9554 18.9482 82.3332 19.2445C81.711 19.5408 81.148 20.0001 80.6443 20.6223V29.0667H82.5554V30.0001H75.6665V29.0667Z" fill="black"/>
<path d="M91.9693 23.9112C91.9693 22.0445 92.5619 20.5482 93.7471 19.4223C94.9323 18.2667 96.4138 17.6889 98.1915 17.6889C99.9989 17.6889 101.48 18.2667 102.636 19.4223C103.821 20.5482 104.414 22.0445 104.414 23.9112C104.414 25.7778 103.836 27.3038 102.68 28.4889C101.525 29.6741 100.043 30.2667 98.236 30.2667C96.4286 30.2667 94.9323 29.6741 93.7471 28.4889C92.5619 27.3038 91.9693 25.7778 91.9693 23.9112ZM98.1915 29.2445C100.236 29.2445 101.214 27.4667 101.125 23.9112C101.125 22.2519 100.917 20.963 100.503 20.0445C100.088 19.126 99.3175 18.6667 98.1915 18.6667C96.5915 18.6667 95.6582 19.7186 95.3915 21.8223C95.3026 22.4741 95.2582 23.1704 95.2582 23.9112C95.2582 25.6001 95.4508 26.8593 95.836 27.6889C96.3101 28.726 97.0952 29.2445 98.1915 29.2445Z" fill="black"/>
<path d="M106.063 23.9112C106.063 22.0445 106.656 20.5482 107.841 19.4223C109.026 18.2667 110.508 17.6889 112.285 17.6889C114.093 17.6889 115.574 18.2667 116.73 19.4223C117.915 20.5482 118.508 22.0445 118.508 23.9112C118.508 25.7778 117.93 27.3038 116.774 28.4889C115.619 29.6741 114.137 30.2667 112.33 30.2667C110.522 30.2667 109.026 29.6741 107.841 28.4889C106.656 27.3038 106.063 25.7778 106.063 23.9112ZM112.285 29.2445C114.33 29.2445 115.308 27.4667 115.219 23.9112C115.219 22.2519 115.011 20.963 114.596 20.0445C114.182 19.126 113.411 18.6667 112.285 18.6667C110.685 18.6667 109.752 19.7186 109.485 21.8223C109.396 22.4741 109.352 23.1704 109.352 23.9112C109.352 25.6001 109.545 26.8593 109.93 27.6889C110.404 28.726 111.189 29.2445 112.285 29.2445Z" fill="black"/>
<path d="M128.69 17.6889C130.586 17.6889 131.905 18.3704 132.646 19.7334C133.89 18.3704 135.312 17.6889 136.912 17.6889C137.979 17.6889 138.912 17.9556 139.712 18.4889C140.749 19.2001 141.268 20.2963 141.268 21.7778V29.0667H143.223V30.0001H136.157V29.0667H138.201V21.4667C138.201 20.5778 138.098 19.9704 137.89 19.6445C137.683 19.3186 137.461 19.0963 137.223 18.9778C136.986 18.8593 136.601 18.8001 136.068 18.8001C135.564 18.8001 135.016 18.9778 134.423 19.3334C133.861 19.6889 133.386 20.1482 133.001 20.7112C133.061 21.0667 133.09 21.3778 133.09 21.6445V29.0667H135.046V30.0001H128.068V29.0667H130.023V21.3334C130.023 20.5038 129.92 19.9408 129.712 19.6445C129.386 19.0815 128.883 18.8001 128.201 18.8001C126.986 18.8001 125.935 19.3482 125.046 20.4445V29.0667H126.957V30.0001H120.023V29.0667H121.979V18.7556H119.979V17.8667H125.046V19.2445C126.172 18.2075 127.386 17.6889 128.69 17.6889Z" fill="black"/>
<path d="M156.148 27.9112C154.904 29.4519 153.141 30.2371 150.86 30.2667C150.089 30.2667 149.289 30.1038 148.46 29.7778C147.63 29.4519 146.934 29.0075 146.371 28.4445C145.156 27.2593 144.548 25.7482 144.548 23.9112C144.578 22.0445 145.186 20.5482 146.371 19.4223C147.586 18.2667 149.111 17.6889 150.948 17.6889C153.674 17.6889 155.393 18.8297 156.104 21.1112C156.341 21.8223 156.46 22.6371 156.46 23.5556H147.837V23.9112C147.837 26.3408 148.534 27.9408 149.926 28.7112C150.4 28.9778 150.948 29.1112 151.571 29.1112C153.023 29.1112 154.341 28.5186 155.526 27.3334L156.148 27.9112ZM153.215 22.5778C153.215 21.3334 153.023 20.3704 152.637 19.6889C152.282 19.0075 151.689 18.6667 150.86 18.6667C149.111 18.6667 148.134 19.9704 147.926 22.5778H153.215Z" fill="black"/>
<path d="M170.242 27.9112C168.998 29.4519 167.235 30.2371 164.953 30.2667C164.183 30.2667 163.383 30.1038 162.553 29.7778C161.724 29.4519 161.027 29.0075 160.464 28.4445C159.25 27.2593 158.642 25.7482 158.642 23.9112C158.672 22.0445 159.279 20.5482 160.464 19.4223C161.679 18.2667 163.205 17.6889 165.042 17.6889C167.768 17.6889 169.487 18.8297 170.198 21.1112C170.435 21.8223 170.553 22.6371 170.553 23.5556H161.931V23.9112C161.931 26.3408 162.627 27.9408 164.02 28.7112C164.494 28.9778 165.042 29.1112 165.664 29.1112C167.116 29.1112 168.435 28.5186 169.62 27.3334L170.242 27.9112ZM167.309 22.5778C167.309 21.3334 167.116 20.3704 166.731 19.6889C166.376 19.0075 165.783 18.6667 164.953 18.6667C163.205 18.6667 162.227 19.9704 162.02 22.5778H167.309Z" fill="black"/>
<path d="M184.336 27.9112C183.092 29.4519 181.329 30.2371 179.047 30.2667C178.277 30.2667 177.477 30.1038 176.647 29.7778C175.817 29.4519 175.121 29.0075 174.558 28.4445C173.343 27.2593 172.736 25.7482 172.736 23.9112C172.766 22.0445 173.373 20.5482 174.558 19.4223C175.773 18.2667 177.299 17.6889 179.136 17.6889C181.862 17.6889 183.58 18.8297 184.292 21.1112C184.529 21.8223 184.647 22.6371 184.647 23.5556H176.025V23.9112C176.025 26.3408 176.721 27.9408 178.114 28.7112C178.588 28.9778 179.136 29.1112 179.758 29.1112C181.21 29.1112 182.529 28.5186 183.714 27.3334L184.336 27.9112ZM181.403 22.5778C181.403 21.3334 181.21 20.3704 180.825 19.6889C180.469 19.0075 179.877 18.6667 179.047 18.6667C177.299 18.6667 176.321 19.9704 176.114 22.5778H181.403Z" fill="black"/>
<path d="M77.792 50.098C77.6053 50.098 77.4607 50.0467 77.358 49.944C77.2647 49.832 77.218 49.6827 77.218 49.496V40.718C77.218 40.522 77.2693 40.3773 77.372 40.284C77.4747 40.1813 77.6193 40.13 77.806 40.13H81.124C82.1787 40.13 82.9907 40.3773 83.56 40.872C84.1293 41.3667 84.414 42.0713 84.414 42.986C84.414 43.5647 84.2833 44.0687 84.022 44.498C83.77 44.918 83.3967 45.24 82.902 45.464C82.4073 45.6787 81.8147 45.786 81.124 45.786L81.264 45.604H81.544C81.908 45.604 82.2253 45.6973 82.496 45.884C82.7667 46.0707 83.014 46.3693 83.238 46.78L84.582 49.286C84.6567 49.4167 84.6893 49.5473 84.68 49.678C84.68 49.7993 84.638 49.902 84.554 49.986C84.47 50.0607 84.3487 50.098 84.19 50.098C84.0313 50.098 83.9007 50.0607 83.798 49.986C83.6953 49.9113 83.6067 49.804 83.532 49.664L82.006 46.836C81.7913 46.4347 81.544 46.1687 81.264 46.038C80.984 45.898 80.6153 45.828 80.158 45.828H78.366V49.496C78.366 49.6827 78.3193 49.832 78.226 49.944C78.1327 50.0467 77.988 50.098 77.792 50.098ZM78.366 44.918H80.956C81.7213 44.918 82.3 44.7593 82.692 44.442C83.084 44.1153 83.28 43.63 83.28 42.986C83.28 42.3607 83.084 41.8893 82.692 41.572C82.3 41.2453 81.7213 41.082 80.956 41.082H78.366V44.918ZM89.3448 50.126C88.6262 50.126 88.0055 49.986 87.4828 49.706C86.9695 49.4167 86.5682 49.0107 86.2788 48.488C85.9988 47.9653 85.8588 47.34 85.8588 46.612C85.8588 45.9027 85.9988 45.2867 86.2788 44.764C86.5588 44.232 86.9415 43.8167 87.4268 43.518C87.9215 43.2193 88.4908 43.07 89.1348 43.07C89.5922 43.07 90.0028 43.1493 90.3668 43.308C90.7308 43.4573 91.0388 43.6767 91.2908 43.966C91.5522 44.2553 91.7482 44.6053 91.8788 45.016C92.0188 45.4267 92.0888 45.8887 92.0888 46.402C92.0888 46.5513 92.0468 46.6633 91.9628 46.738C91.8788 46.8033 91.7575 46.836 91.5988 46.836H86.7268V46.094H91.3328L91.1088 46.276C91.1088 45.772 91.0342 45.3473 90.8848 45.002C90.7355 44.6473 90.5162 44.3767 90.2268 44.19C89.9468 44.0033 89.5922 43.91 89.1628 43.91C88.6868 43.91 88.2808 44.022 87.9448 44.246C87.6182 44.4607 87.3708 44.764 87.2028 45.156C87.0348 45.5387 86.9508 45.9867 86.9508 46.5V46.584C86.9508 47.4427 87.1562 48.096 87.5668 48.544C87.9868 48.992 88.5795 49.216 89.3448 49.216C89.6622 49.216 89.9748 49.174 90.2828 49.09C90.6002 49.006 90.9082 48.866 91.2068 48.67C91.3375 48.586 91.4542 48.5487 91.5568 48.558C91.6688 48.558 91.7575 48.5907 91.8228 48.656C91.8882 48.712 91.9302 48.7867 91.9488 48.88C91.9768 48.964 91.9675 49.0573 91.9208 49.16C91.8835 49.2627 91.8042 49.3513 91.6828 49.426C91.3748 49.65 91.0108 49.8227 90.5908 49.944C90.1708 50.0653 89.7555 50.126 89.3448 50.126ZM95.872 50.126C95.4053 50.126 94.9853 50.0373 94.612 49.86C94.248 49.6733 93.9587 49.4213 93.744 49.104C93.5293 48.7867 93.422 48.432 93.422 48.04C93.422 47.536 93.548 47.1393 93.8 46.85C94.0613 46.5607 94.486 46.3553 95.074 46.234C95.6713 46.1127 96.4833 46.052 97.51 46.052H98.14V46.794H97.524C96.768 46.794 96.1707 46.8313 95.732 46.906C95.3027 46.9713 94.9993 47.088 94.822 47.256C94.654 47.424 94.57 47.662 94.57 47.97C94.57 48.3527 94.7007 48.6653 94.962 48.908C95.2327 49.1507 95.5967 49.272 96.054 49.272C96.4273 49.272 96.754 49.1833 97.034 49.006C97.3233 48.8287 97.5473 48.586 97.706 48.278C97.874 47.97 97.958 47.6153 97.958 47.214V45.618C97.958 45.0393 97.8413 44.624 97.608 44.372C97.3747 44.1107 96.992 43.98 96.46 43.98C96.1333 43.98 95.8067 44.022 95.48 44.106C95.1533 44.19 94.808 44.3253 94.444 44.512C94.3133 44.5773 94.2013 44.6007 94.108 44.582C94.0147 44.554 93.94 44.5027 93.884 44.428C93.828 44.3533 93.7953 44.2693 93.786 44.176C93.7767 44.0733 93.7953 43.9753 93.842 43.882C93.898 43.7887 93.982 43.714 94.094 43.658C94.5047 43.4527 94.9107 43.3033 95.312 43.21C95.7133 43.1167 96.096 43.07 96.46 43.07C97.048 43.07 97.5333 43.168 97.916 43.364C98.2987 43.5507 98.5833 43.84 98.77 44.232C98.9567 44.6147 99.05 45.1093 99.05 45.716V49.51C99.05 49.6967 99.0033 49.8413 98.91 49.944C98.826 50.0467 98.7 50.098 98.532 50.098C98.3547 50.098 98.2193 50.0467 98.126 49.944C98.0327 49.8413 97.986 49.6967 97.986 49.51V48.418H98.112C98.0373 48.7727 97.8927 49.076 97.678 49.328C97.4727 49.58 97.216 49.776 96.908 49.916C96.6 50.056 96.2547 50.126 95.872 50.126ZM103.226 50.126C102.554 50.126 102.041 49.9207 101.686 49.51C101.331 49.0993 101.154 48.5113 101.154 47.746V40.606C101.154 40.4193 101.201 40.2793 101.294 40.186C101.387 40.0833 101.527 40.032 101.714 40.032C101.891 40.032 102.031 40.0833 102.134 40.186C102.237 40.2793 102.288 40.4193 102.288 40.606V47.662C102.288 48.166 102.386 48.544 102.582 48.796C102.787 49.0387 103.086 49.16 103.478 49.16C103.562 49.16 103.637 49.1553 103.702 49.146C103.767 49.1367 103.833 49.132 103.898 49.132C104.001 49.1227 104.071 49.146 104.108 49.202C104.155 49.258 104.178 49.37 104.178 49.538C104.178 49.706 104.141 49.832 104.066 49.916C103.991 50 103.87 50.056 103.702 50.084C103.627 50.0933 103.548 50.1027 103.464 50.112C103.38 50.1213 103.301 50.126 103.226 50.126ZM109.69 50C109.484 50 109.326 49.9487 109.214 49.846C109.111 49.734 109.06 49.5753 109.06 49.37V40.76C109.06 40.5547 109.111 40.4007 109.214 40.298C109.326 40.186 109.484 40.13 109.69 40.13H114.898C115.056 40.13 115.178 40.172 115.262 40.256C115.346 40.34 115.388 40.4567 115.388 40.606C115.388 40.7647 115.346 40.886 115.262 40.97C115.178 41.054 115.056 41.096 114.898 41.096H110.18V44.512H114.604C114.762 44.512 114.884 44.554 114.968 44.638C115.052 44.7127 115.094 44.8293 115.094 44.988C115.094 45.1467 115.052 45.268 114.968 45.352C114.884 45.436 114.762 45.478 114.604 45.478H110.18V49.034H114.898C115.056 49.034 115.178 49.076 115.262 49.16C115.346 49.244 115.388 49.3607 115.388 49.51C115.388 49.6687 115.346 49.79 115.262 49.874C115.178 49.958 115.056 50 114.898 50H109.69ZM119.255 50.126C118.835 50.126 118.41 50.0747 117.981 49.972C117.561 49.8693 117.169 49.692 116.805 49.44C116.711 49.3747 116.646 49.3 116.609 49.216C116.571 49.1227 116.557 49.034 116.567 48.95C116.585 48.8567 116.623 48.7773 116.679 48.712C116.744 48.6467 116.819 48.6093 116.903 48.6C116.996 48.5813 117.099 48.6 117.211 48.656C117.575 48.88 117.925 49.0387 118.261 49.132C118.606 49.216 118.947 49.258 119.283 49.258C119.815 49.258 120.216 49.16 120.487 48.964C120.757 48.768 120.893 48.502 120.893 48.166C120.893 47.9047 120.804 47.6993 120.627 47.55C120.449 47.3913 120.169 47.27 119.787 47.186L118.513 46.906C117.925 46.7847 117.486 46.5747 117.197 46.276C116.917 45.9773 116.777 45.59 116.777 45.114C116.777 44.694 116.884 44.3347 117.099 44.036C117.323 43.728 117.635 43.49 118.037 43.322C118.438 43.154 118.905 43.07 119.437 43.07C119.847 43.07 120.235 43.126 120.599 43.238C120.972 43.3407 121.308 43.5087 121.607 43.742C121.7 43.8073 121.761 43.8867 121.789 43.98C121.826 44.064 121.831 44.1527 121.803 44.246C121.784 44.33 121.742 44.4047 121.677 44.47C121.611 44.526 121.532 44.5587 121.439 44.568C121.345 44.5773 121.247 44.5493 121.145 44.484C120.865 44.2973 120.58 44.162 120.291 44.078C120.001 43.9847 119.717 43.938 119.437 43.938C118.914 43.938 118.517 44.0407 118.247 44.246C117.976 44.4513 117.841 44.722 117.841 45.058C117.841 45.3193 117.925 45.534 118.093 45.702C118.261 45.87 118.522 45.9913 118.877 46.066L120.151 46.332C120.757 46.4627 121.21 46.6727 121.509 46.962C121.817 47.242 121.971 47.6247 121.971 48.11C121.971 48.726 121.723 49.216 121.229 49.58C120.734 49.944 120.076 50.126 119.255 50.126ZM126.36 50.126C125.828 50.126 125.38 50.0327 125.016 49.846C124.662 49.65 124.396 49.37 124.218 49.006C124.041 48.6327 123.952 48.18 123.952 47.648V44.078H123.014C122.856 44.078 122.734 44.0407 122.65 43.966C122.566 43.882 122.524 43.77 122.524 43.63C122.524 43.49 122.566 43.3827 122.65 43.308C122.734 43.2333 122.856 43.196 123.014 43.196H123.952V41.586C123.952 41.3993 124.004 41.2593 124.106 41.166C124.209 41.0633 124.349 41.012 124.526 41.012C124.704 41.012 124.839 41.0633 124.932 41.166C125.035 41.2593 125.086 41.3993 125.086 41.586V43.196H126.85C127.009 43.196 127.13 43.2333 127.214 43.308C127.298 43.3827 127.34 43.49 127.34 43.63C127.34 43.77 127.298 43.882 127.214 43.966C127.13 44.0407 127.009 44.078 126.85 44.078H125.086V47.536C125.086 48.068 125.198 48.474 125.422 48.754C125.646 49.0247 126.01 49.16 126.514 49.16C126.692 49.16 126.841 49.1413 126.962 49.104C127.093 49.0667 127.2 49.048 127.284 49.048C127.368 49.0387 127.438 49.0667 127.494 49.132C127.55 49.1973 127.578 49.3093 127.578 49.468C127.578 49.58 127.555 49.6827 127.508 49.776C127.471 49.8693 127.401 49.9347 127.298 49.972C127.186 50.0093 127.037 50.042 126.85 50.07C126.673 50.1073 126.51 50.126 126.36 50.126ZM130.667 50.126C130.2 50.126 129.78 50.0373 129.407 49.86C129.043 49.6733 128.754 49.4213 128.539 49.104C128.324 48.7867 128.217 48.432 128.217 48.04C128.217 47.536 128.343 47.1393 128.595 46.85C128.856 46.5607 129.281 46.3553 129.869 46.234C130.466 46.1127 131.278 46.052 132.305 46.052H132.935V46.794H132.319C131.563 46.794 130.966 46.8313 130.527 46.906C130.098 46.9713 129.794 47.088 129.617 47.256C129.449 47.424 129.365 47.662 129.365 47.97C129.365 48.3527 129.496 48.6653 129.757 48.908C130.028 49.1507 130.392 49.272 130.849 49.272C131.222 49.272 131.549 49.1833 131.829 49.006C132.118 48.8287 132.342 48.586 132.501 48.278C132.669 47.97 132.753 47.6153 132.753 47.214V45.618C132.753 45.0393 132.636 44.624 132.403 44.372C132.17 44.1107 131.787 43.98 131.255 43.98C130.928 43.98 130.602 44.022 130.275 44.106C129.948 44.19 129.603 44.3253 129.239 44.512C129.108 44.5773 128.996 44.6007 128.903 44.582C128.81 44.554 128.735 44.5027 128.679 44.428C128.623 44.3533 128.59 44.2693 128.581 44.176C128.572 44.0733 128.59 43.9753 128.637 43.882C128.693 43.7887 128.777 43.714 128.889 43.658C129.3 43.4527 129.706 43.3033 130.107 43.21C130.508 43.1167 130.891 43.07 131.255 43.07C131.843 43.07 132.328 43.168 132.711 43.364C133.094 43.5507 133.378 43.84 133.565 44.232C133.752 44.6147 133.845 45.1093 133.845 45.716V49.51C133.845 49.6967 133.798 49.8413 133.705 49.944C133.621 50.0467 133.495 50.098 133.327 50.098C133.15 50.098 133.014 50.0467 132.921 49.944C132.828 49.8413 132.781 49.6967 132.781 49.51V48.418H132.907C132.832 48.7727 132.688 49.076 132.473 49.328C132.268 49.58 132.011 49.776 131.703 49.916C131.395 50.056 131.05 50.126 130.667 50.126ZM138.679 50.126C138.147 50.126 137.699 50.0327 137.335 49.846C136.98 49.65 136.714 49.37 136.537 49.006C136.359 48.6327 136.271 48.18 136.271 47.648V44.078H135.333C135.174 44.078 135.053 44.0407 134.969 43.966C134.885 43.882 134.843 43.77 134.843 43.63C134.843 43.49 134.885 43.3827 134.969 43.308C135.053 43.2333 135.174 43.196 135.333 43.196H136.271V41.586C136.271 41.3993 136.322 41.2593 136.425 41.166C136.527 41.0633 136.667 41.012 136.845 41.012C137.022 41.012 137.157 41.0633 137.251 41.166C137.353 41.2593 137.405 41.3993 137.405 41.586V43.196H139.169C139.327 43.196 139.449 43.2333 139.533 43.308C139.617 43.3827 139.659 43.49 139.659 43.63C139.659 43.77 139.617 43.882 139.533 43.966C139.449 44.0407 139.327 44.078 139.169 44.078H137.405V47.536C137.405 48.068 137.517 48.474 137.741 48.754C137.965 49.0247 138.329 49.16 138.833 49.16C139.01 49.16 139.159 49.1413 139.281 49.104C139.411 49.0667 139.519 49.048 139.603 49.048C139.687 49.0387 139.757 49.0667 139.813 49.132C139.869 49.1973 139.897 49.3093 139.897 49.468C139.897 49.58 139.873 49.6827 139.827 49.776C139.789 49.8693 139.719 49.9347 139.617 49.972C139.505 50.0093 139.355 50.042 139.169 50.07C138.991 50.1073 138.828 50.126 138.679 50.126ZM143.841 50.126C143.122 50.126 142.502 49.986 141.979 49.706C141.466 49.4167 141.064 49.0107 140.775 48.488C140.495 47.9653 140.355 47.34 140.355 46.612C140.355 45.9027 140.495 45.2867 140.775 44.764C141.055 44.232 141.438 43.8167 141.923 43.518C142.418 43.2193 142.987 43.07 143.631 43.07C144.088 43.07 144.499 43.1493 144.863 43.308C145.227 43.4573 145.535 43.6767 145.787 43.966C146.048 44.2553 146.244 44.6053 146.375 45.016C146.515 45.4267 146.585 45.8887 146.585 46.402C146.585 46.5513 146.543 46.6633 146.459 46.738C146.375 46.8033 146.254 46.836 146.095 46.836H141.223V46.094H145.829L145.605 46.276C145.605 45.772 145.53 45.3473 145.381 45.002C145.232 44.6473 145.012 44.3767 144.723 44.19C144.443 44.0033 144.088 43.91 143.659 43.91C143.183 43.91 142.777 44.022 142.441 44.246C142.114 44.4607 141.867 44.764 141.699 45.156C141.531 45.5387 141.447 45.9867 141.447 46.5V46.584C141.447 47.4427 141.652 48.096 142.063 48.544C142.483 48.992 143.076 49.216 143.841 49.216C144.158 49.216 144.471 49.174 144.779 49.09C145.096 49.006 145.404 48.866 145.703 48.67C145.834 48.586 145.95 48.5487 146.053 48.558C146.165 48.558 146.254 48.5907 146.319 48.656C146.384 48.712 146.426 48.7867 146.445 48.88C146.473 48.964 146.464 49.0573 146.417 49.16C146.38 49.2627 146.3 49.3513 146.179 49.426C145.871 49.65 145.507 49.8227 145.087 49.944C144.667 50.0653 144.252 50.126 143.841 50.126ZM151.779 50.098C151.63 50.098 151.509 50.0653 151.415 50C151.331 49.9253 151.28 49.832 151.261 49.72C151.252 49.5987 151.28 49.4633 151.345 49.314L155.195 40.55C155.279 40.3633 155.377 40.2327 155.489 40.158C155.611 40.074 155.741 40.032 155.881 40.032C156.021 40.032 156.147 40.074 156.259 40.158C156.381 40.2327 156.479 40.3633 156.553 40.55L160.417 49.314C160.492 49.4633 160.52 49.5987 160.501 49.72C160.492 49.8413 160.445 49.9347 160.361 50C160.277 50.0653 160.161 50.098 160.011 50.098C159.843 50.098 159.708 50.056 159.605 49.972C159.503 49.8787 159.419 49.748 159.353 49.58L158.317 47.186L158.877 47.48H152.857L153.431 47.186L152.409 49.58C152.325 49.7573 152.237 49.888 152.143 49.972C152.05 50.056 151.929 50.098 151.779 50.098ZM155.867 41.474L153.613 46.78L153.277 46.514H158.457L158.149 46.78L155.895 41.474H155.867ZM164.556 50.126C163.95 50.126 163.418 49.9813 162.96 49.692C162.512 49.4027 162.162 48.9967 161.91 48.474C161.668 47.942 161.546 47.3167 161.546 46.598C161.546 45.87 161.668 45.2447 161.91 44.722C162.162 44.19 162.512 43.784 162.96 43.504C163.418 43.2147 163.95 43.07 164.556 43.07C165.172 43.07 165.7 43.224 166.138 43.532C166.577 43.84 166.871 44.2553 167.02 44.778H166.866V40.606C166.866 40.4193 166.913 40.2793 167.006 40.186C167.109 40.0833 167.254 40.032 167.44 40.032C167.618 40.032 167.753 40.0833 167.846 40.186C167.949 40.2793 168 40.4193 168 40.606V49.51C168 49.6967 167.954 49.8413 167.86 49.944C167.767 50.0467 167.627 50.098 167.44 50.098C167.263 50.098 167.123 50.0467 167.02 49.944C166.927 49.8413 166.88 49.6967 166.88 49.51V48.18L167.034 48.376C166.885 48.908 166.586 49.3327 166.138 49.65C165.7 49.9673 165.172 50.126 164.556 50.126ZM164.794 49.216C165.214 49.216 165.583 49.1133 165.9 48.908C166.218 48.7027 166.46 48.404 166.628 48.012C166.806 47.62 166.894 47.1487 166.894 46.598C166.894 45.7487 166.703 45.1 166.32 44.652C165.947 44.204 165.438 43.98 164.794 43.98C164.365 43.98 163.992 44.0827 163.674 44.288C163.366 44.484 163.124 44.778 162.946 45.17C162.778 45.5527 162.694 46.0287 162.694 46.598C162.694 47.438 162.886 48.0867 163.268 48.544C163.651 48.992 164.16 49.216 164.794 49.216ZM170.716 50.098C170.53 50.098 170.39 50.0467 170.296 49.944C170.203 49.8413 170.156 49.6967 170.156 49.51V43.672C170.156 43.4853 170.203 43.3453 170.296 43.252C170.39 43.1493 170.525 43.098 170.702 43.098C170.88 43.098 171.015 43.1493 171.108 43.252C171.211 43.3453 171.262 43.4853 171.262 43.672V44.904L171.108 44.708C171.286 44.1853 171.57 43.784 171.962 43.504C172.364 43.2147 172.84 43.07 173.39 43.07C173.969 43.07 174.436 43.21 174.79 43.49C175.154 43.7607 175.397 44.1853 175.518 44.764H175.308C175.476 44.2413 175.775 43.8307 176.204 43.532C176.643 43.224 177.152 43.07 177.73 43.07C178.244 43.07 178.664 43.168 178.99 43.364C179.326 43.56 179.578 43.8587 179.746 44.26C179.914 44.652 179.998 45.1513 179.998 45.758V49.51C179.998 49.6967 179.947 49.8413 179.844 49.944C179.751 50.0467 179.611 50.098 179.424 50.098C179.247 50.098 179.107 50.0467 179.004 49.944C178.911 49.8413 178.864 49.6967 178.864 49.51V45.814C178.864 45.1887 178.757 44.7313 178.542 44.442C178.328 44.1433 177.964 43.994 177.45 43.994C176.89 43.994 176.447 44.19 176.12 44.582C175.803 44.9647 175.644 45.4873 175.644 46.15V49.51C175.644 49.6967 175.593 49.8413 175.49 49.944C175.397 50.0467 175.257 50.098 175.07 50.098C174.893 50.098 174.753 50.0467 174.65 49.944C174.557 49.8413 174.51 49.6967 174.51 49.51V45.814C174.51 45.1887 174.398 44.7313 174.174 44.442C173.96 44.1433 173.6 43.994 173.096 43.994C172.536 43.994 172.093 44.19 171.766 44.582C171.449 44.9647 171.29 45.4873 171.29 46.15V49.51C171.29 49.902 171.099 50.098 170.716 50.098ZM182.679 50.07C182.492 50.07 182.352 50.0187 182.259 49.916C182.165 49.804 182.119 49.65 182.119 49.454V43.728C182.119 43.532 182.165 43.3827 182.259 43.28C182.352 43.1773 182.492 43.126 182.679 43.126C182.856 43.126 182.996 43.1773 183.099 43.28C183.201 43.3827 183.253 43.532 183.253 43.728V49.454C183.253 49.65 183.201 49.804 183.099 49.916C183.005 50.0187 182.865 50.07 182.679 50.07ZM182.679 41.558C182.445 41.558 182.263 41.4973 182.133 41.376C182.002 41.2453 181.937 41.0727 181.937 40.858C181.937 40.634 182.002 40.466 182.133 40.354C182.263 40.2327 182.445 40.172 182.679 40.172C182.921 40.172 183.103 40.2327 183.225 40.354C183.355 40.466 183.421 40.634 183.421 40.858C183.421 41.0727 183.355 41.2453 183.225 41.376C183.103 41.4973 182.921 41.558 182.679 41.558ZM185.933 50.098C185.746 50.098 185.606 50.0467 185.513 49.944C185.419 49.8413 185.373 49.6967 185.373 49.51V43.672C185.373 43.4853 185.419 43.3453 185.513 43.252C185.606 43.1493 185.741 43.098 185.919 43.098C186.096 43.098 186.231 43.1493 186.325 43.252C186.427 43.3453 186.479 43.4853 186.479 43.672V44.876L186.325 44.708C186.521 44.1667 186.838 43.7607 187.277 43.49C187.725 43.21 188.238 43.07 188.817 43.07C189.358 43.07 189.806 43.168 190.161 43.364C190.525 43.56 190.795 43.8587 190.973 44.26C191.15 44.652 191.239 45.1513 191.239 45.758V49.51C191.239 49.6967 191.187 49.8413 191.085 49.944C190.991 50.0467 190.856 50.098 190.679 50.098C190.492 50.098 190.347 50.0467 190.245 49.944C190.151 49.8413 190.105 49.6967 190.105 49.51V45.828C190.105 45.1933 189.979 44.7313 189.727 44.442C189.484 44.1433 189.092 43.994 188.551 43.994C187.925 43.994 187.426 44.19 187.053 44.582C186.689 44.9647 186.507 45.478 186.507 46.122V49.51C186.507 49.902 186.315 50.098 185.933 50.098Z" fill="#717579"/>
<rect width="55" height="55" rx="9" fill="#00695E"/>
<path d="M30.2705 40.8958H14.2288C13.4268 40.8958 12.7705 40.2395 12.7705 39.4374V25.1458C12.7705 24.3437 13.4268 23.6874 14.2288 23.6874C15.0309 23.6874 15.6872 24.3437 15.6872 25.1458V38.052H28.8122V25.1458C28.8122 24.3437 29.4684 23.6874 30.2705 23.6874C31.0726 23.6874 31.7288 24.3437 31.7288 25.1458V39.4374C31.7288 40.2395 31.0726 40.8958 30.2705 40.8958Z" fill="white"/>
<path d="M32.7499 28.3541C32.3853 28.3541 32.0937 28.2083 31.802 27.9895L22.2499 19.4583L12.7708 27.9895C12.1874 28.4999 11.2395 28.4999 10.7291 27.8437C10.2187 27.2604 10.2187 26.3854 10.8749 25.802L21.302 16.4687C21.8124 15.9583 22.6874 15.9583 23.1978 16.4687L33.6978 25.8749C34.2812 26.3854 34.3541 27.3333 33.8437 27.9166C33.552 28.2083 33.1145 28.3541 32.7499 28.3541Z" fill="white"/>
<path d="M40.771 40.8958H24.7293C23.9272 40.8958 23.271 40.2395 23.271 39.4374C23.271 38.6354 23.9272 37.9791 24.7293 37.9791H39.3127V25.1458C39.3127 24.3437 39.9689 23.6874 40.771 23.6874C41.5731 23.6874 42.2293 24.3437 42.2293 25.1458V39.4374C42.1564 40.2395 41.5002 40.8958 40.771 40.8958Z" fill="white"/>
<path d="M43.1773 28.3541C42.8127 28.3541 42.5211 28.2083 42.2294 27.9895L32.7502 19.4583L28.594 23.177C28.0107 23.6874 27.1357 23.6874 26.5523 23.0312C26.0419 22.4479 26.0419 21.5729 26.6982 20.9895L31.8023 16.4687C32.3127 15.9583 33.1877 15.9583 33.6982 16.4687L44.1982 25.8749C44.7815 26.3854 44.8544 27.3333 44.344 27.9166C43.9794 28.2083 43.6148 28.3541 43.1773 28.3541Z" fill="white"/>
<path d="M43.1772 40.8958H11.8231C11.021 40.8958 10.3647 40.2396 10.3647 39.4375C10.3647 38.6354 11.021 37.9791 11.8231 37.9791H43.2502C44.0522 37.9791 44.7085 38.6354 44.7085 39.4375C44.7085 40.2396 43.9793 40.8958 43.1772 40.8958Z" fill="white"/>
</svg>
