<svg width="28" height="28" viewBox="0 0 28 28" fill="none" xmlns="http://www.w3.org/2000/svg">
<path d="M21.844 27H18C17.7348 27 17.4804 26.8947 17.2929 26.7071C17.1054 26.5196 17 26.2652 17 26V18.794C16.9984 18.0535 16.7035 17.3438 16.1799 16.8201C15.6563 16.2965 14.9465 16.0016 14.206 16H13.794C13.0535 16.0016 12.3437 16.2965 11.8201 16.8201C11.2965 17.3438 11.0016 18.0535 11 18.794V26C11 26.2652 10.8946 26.5196 10.7071 26.7071C10.5196 26.8947 10.2652 27 10 27H6.156C5.05409 26.999 3.99761 26.5608 3.21843 25.7816C2.43926 25.0024 2.00106 23.9459 2 22.844V11C2.00002 10.8519 2.03296 10.7056 2.09643 10.5717C2.1599 10.4379 2.25232 10.3198 2.367 10.226L13.367 1.22603C13.5456 1.07997 13.7693 1.00018 14 1.00018C14.2307 1.00018 14.4544 1.07997 14.633 1.22603L25.633 10.226C25.7477 10.3198 25.8401 10.4379 25.9036 10.5717C25.967 10.7056 26 10.8519 26 11V22.844C25.9989 23.9459 25.5607 25.0024 24.7816 25.7816C24.0024 26.5608 22.9459 26.999 21.844 27ZM19 25H21.844C22.4156 24.9995 22.9637 24.7722 23.3679 24.368C23.7722 23.9638 23.9995 23.4157 24 22.844V11.474L14 3.29203L4 11.474V22.844C4.00053 23.4157 4.22785 23.9638 4.63206 24.368C5.03628 24.7722 5.58436 24.9995 6.156 25H9V18.794C9.00159 17.5231 9.50718 16.3046 10.4059 15.4059C11.3046 14.5072 12.523 14.0016 13.794 14H14.206C15.477 14.0016 16.6954 14.5072 17.5941 15.4059C18.4928 16.3046 18.9984 17.5231 19 18.794V25Z" fill="#717579"/>
</svg>
