<svg width="28" height="28" viewBox="0 0 28 28" fill="none" xmlns="http://www.w3.org/2000/svg">
<path d="M26.754 4.344C26.6602 4.2361 26.5444 4.14955 26.4143 4.09021C26.2842 4.03087 26.143 4.00011 26 4H6.368L5.985 1.826C5.9441 1.5945 5.82294 1.38481 5.64281 1.23376C5.46268 1.0827 5.23509 0.99994 5 1H2C1.73478 1 1.48043 1.10536 1.29289 1.29289C1.10536 1.48043 1 1.73478 1 2C1 2.26522 1.10536 2.51957 1.29289 2.70711C1.48043 2.89464 1.73478 3 2 3H4.161L6.531 16.43C6.70664 17.4309 7.22979 18.3377 8.00832 18.9907C8.78685 19.6438 9.77084 20.0012 10.787 20H21.15C22.1858 20.0044 23.1884 19.6347 23.9734 18.959C24.7584 18.2833 25.2732 17.3469 25.423 16.322L26.99 5.139C27.0098 4.99732 26.999 4.85303 26.9583 4.71588C26.9176 4.57874 26.8479 4.45192 26.754 4.344ZM23.445 16.031C23.3634 16.5804 23.0864 17.082 22.6649 17.4437C22.2433 17.8054 21.7054 18.0029 21.15 18H10.787C10.2411 18.0005 9.71242 17.8084 9.2941 17.4576C8.87579 17.1068 8.5946 16.6197 8.5 16.082L6.721 6H24.85L23.445 16.031Z" fill="#717579"/>
<path d="M11 21C10.4067 21 9.82664 21.1759 9.33329 21.5056C8.83994 21.8352 8.45543 22.3038 8.22836 22.8519C8.0013 23.4001 7.94189 24.0033 8.05765 24.5853C8.1734 25.1672 8.45912 25.7018 8.87868 26.1213C9.29824 26.5409 9.83279 26.8266 10.4147 26.9424C10.9967 27.0581 11.5999 26.9987 12.148 26.7716C12.6962 26.5446 13.1648 26.1601 13.4944 25.6667C13.824 25.1734 14 24.5933 14 24C14 23.2043 13.6839 22.4413 13.1213 21.8787C12.5587 21.3161 11.7956 21 11 21ZM11 25C10.8022 25 10.6089 24.9413 10.4444 24.8315C10.28 24.7216 10.1518 24.5654 10.0761 24.3827C10.0004 24.2 9.98063 23.9989 10.0192 23.8049C10.0578 23.6109 10.153 23.4327 10.2929 23.2929C10.4327 23.153 10.6109 23.0578 10.8049 23.0192C10.9989 22.9806 11.2 23.0004 11.3827 23.0761C11.5654 23.1518 11.7216 23.28 11.8315 23.4444C11.9413 23.6089 12 23.8022 12 24C12 24.2652 11.8946 24.5196 11.7071 24.7071C11.5196 24.8946 11.2652 25 11 25Z" fill="#717579"/>
<path d="M21 21C20.4067 21 19.8266 21.1759 19.3333 21.5056C18.8399 21.8352 18.4554 22.3038 18.2284 22.8519C18.0013 23.4001 17.9419 24.0033 18.0576 24.5853C18.1734 25.1672 18.4591 25.7018 18.8787 26.1213C19.2982 26.5409 19.8328 26.8266 20.4147 26.9424C20.9967 27.0581 21.5999 26.9987 22.148 26.7716C22.6962 26.5446 23.1648 26.1601 23.4944 25.6667C23.824 25.1734 24 24.5933 24 24C24 23.2043 23.6839 22.4413 23.1213 21.8787C22.5587 21.3161 21.7956 21 21 21ZM21 25C20.8022 25 20.6089 24.9413 20.4444 24.8315C20.28 24.7216 20.1518 24.5654 20.0761 24.3827C20.0004 24.2 19.9806 23.9989 20.0192 23.8049C20.0578 23.6109 20.153 23.4327 20.2929 23.2929C20.4327 23.153 20.6109 23.0578 20.8049 23.0192C20.9989 22.9806 21.2 23.0004 21.3827 23.0761C21.5654 23.1518 21.7216 23.28 21.8315 23.4444C21.9413 23.6089 22 23.8022 22 24C22 24.2652 21.8946 24.5196 21.7071 24.7071C21.5196 24.8946 21.2652 25 21 25Z" fill="#717579"/>
<path d="M14 16C14.2652 16 14.5196 15.8947 14.7071 15.7071C14.8946 15.5196 15 15.2652 15 15V9C15 8.73478 14.8946 8.48043 14.7071 8.29289C14.5196 8.10536 14.2652 8 14 8C13.7348 8 13.4804 8.10536 13.2929 8.29289C13.1054 8.48043 13 8.73478 13 9V15C13 15.2652 13.1054 15.5196 13.2929 15.7071C13.4804 15.8947 13.7348 16 14 16Z" fill="#717579"/>
<path d="M18 16C18.2652 16 18.5196 15.8947 18.7071 15.7071C18.8946 15.5196 19 15.2652 19 15V9C19 8.73478 18.8946 8.48043 18.7071 8.29289C18.5196 8.10536 18.2652 8 18 8C17.7348 8 17.4804 8.10536 17.2929 8.29289C17.1054 8.48043 17 8.73478 17 9V15C17 15.2652 17.1054 15.5196 17.2929 15.7071C17.4804 15.8947 17.7348 16 18 16Z" fill="#717579"/>
</svg>
