<svg width="28" height="28" viewBox="0 0 28 28" fill="none" xmlns="http://www.w3.org/2000/svg">
<path d="M26.0001 1H15.0001C14.7349 1.00006 14.4806 1.10545 14.2931 1.293L2.21308 13.373C1.51755 14.0704 1.12695 15.0151 1.12695 16C1.12695 16.9849 1.51755 17.9296 2.21308 18.627L9.37308 25.787C10.0702 26.483 11.015 26.874 12.0001 26.874C12.9852 26.874 13.93 26.483 14.6271 25.787L26.7071 13.707C26.8946 13.5195 27 13.2652 27.0001 13V2C27.0001 1.73478 26.8947 1.48043 26.7072 1.29289C26.5197 1.10536 26.2653 1 26.0001 1ZM25.0001 12.586L13.2131 24.373C12.8912 24.6943 12.4549 24.8748 12.0001 24.8748C11.5452 24.8748 11.109 24.6943 10.7871 24.373L3.62708 17.213C3.30576 16.8911 3.12529 16.4548 3.12529 16C3.12529 15.5452 3.30576 15.1089 3.62708 14.787L15.4141 3H25.0001V12.586Z" fill="#717579"/>
<path d="M7.70692 15.293C7.51832 15.1109 7.26571 15.0101 7.00352 15.0123C6.74132 15.0146 6.49051 15.1198 6.3051 15.3052C6.11969 15.4906 6.01452 15.7414 6.01224 16.0036C6.00997 16.2658 6.11076 16.5184 6.29292 16.707L11.2929 21.707C11.4815 21.8892 11.7341 21.99 11.9963 21.9877C12.2585 21.9854 12.5093 21.8802 12.6947 21.6948C12.8801 21.5094 12.9853 21.2586 12.9876 20.9964C12.9899 20.7342 12.8891 20.4816 12.7069 20.293L7.70692 15.293Z" fill="#717579"/>
<path d="M20 11C20.5933 11 21.1734 10.8241 21.6667 10.4944C22.1601 10.1648 22.5446 9.69623 22.7716 9.14805C22.9987 8.59987 23.0581 7.99667 22.9423 7.41473C22.8266 6.83279 22.5409 6.29824 22.1213 5.87868C21.7018 5.45912 21.1672 5.1734 20.5853 5.05765C20.0033 4.94189 19.4001 5.0013 18.8519 5.22836C18.3038 5.45543 17.8352 5.83994 17.5056 6.33329C17.1759 6.82664 17 7.40666 17 8C17 8.79565 17.3161 9.55871 17.8787 10.1213C18.4413 10.6839 19.2043 11 20 11ZM20 7C20.1978 7 20.3911 7.05865 20.5556 7.16853C20.72 7.27841 20.8482 7.43459 20.9239 7.61732C20.9996 7.80004 21.0194 8.00111 20.9808 8.19509C20.9422 8.38907 20.847 8.56726 20.7071 8.70711C20.5673 8.84696 20.3891 8.9422 20.1951 8.98079C20.0011 9.01937 19.8 8.99957 19.6173 8.92388C19.4346 8.84819 19.2784 8.72002 19.1685 8.55557C19.0586 8.39112 19 8.19778 19 8C19 7.73479 19.1054 7.48043 19.2929 7.29289C19.4804 7.10536 19.7348 7 20 7Z" fill="#717579"/>
</svg>
