<svg width="24" height="24" viewBox="0 0 24 24" fill="none" xmlns="http://www.w3.org/2000/svg">
<path d="M18 1.00006H6C4.67441 1.00165 3.40356 1.52894 2.46622 2.46628C1.52888 3.40362 1.00159 4.67447 1 6.00006V14.0001C1.00145 15.1523 1.40009 16.2687 2.12872 17.1613C2.85735 18.0539 3.87141 18.668 5 18.9001V22.0001C4.99997 22.1811 5.0491 22.3588 5.14213 22.5141C5.23516 22.6694 5.36861 22.7965 5.52823 22.8819C5.68786 22.9673 5.86769 23.0078 6.04852 22.999C6.22935 22.9902 6.4044 22.9325 6.555 22.8321L12.3 19.0001H18C19.3256 18.9985 20.5964 18.4712 21.5338 17.5338C22.4711 16.5965 22.9984 15.3257 23 14.0001V6.00006C22.9984 4.67447 22.4711 3.40362 21.5338 2.46628C20.5964 1.52894 19.3256 1.00165 18 1.00006ZM16 13.0001H8C7.73478 13.0001 7.48043 12.8947 7.29289 12.7072C7.10536 12.5196 7 12.2653 7 12.0001C7 11.7348 7.10536 11.4805 7.29289 11.293C7.48043 11.1054 7.73478 11.0001 8 11.0001H16C16.2652 11.0001 16.5196 11.1054 16.7071 11.293C16.8946 11.4805 17 11.7348 17 12.0001C17 12.2653 16.8946 12.5196 16.7071 12.7072C16.5196 12.8947 16.2652 13.0001 16 13.0001ZM18 9.00006H6C5.73478 9.00006 5.48043 8.8947 5.29289 8.70717C5.10536 8.51963 5 8.26528 5 8.00006C5 7.73484 5.10536 7.48049 5.29289 7.29295C5.48043 7.10542 5.73478 7.00006 6 7.00006H18C18.2652 7.00006 18.5196 7.10542 18.7071 7.29295C18.8946 7.48049 19 7.73484 19 8.00006C19 8.26528 18.8946 8.51963 18.7071 8.70717C18.5196 8.8947 18.2652 9.00006 18 9.00006Z" fill="#00695E"/>
</svg>
