<svg width="24" height="24" viewBox="0 0 24 24" fill="none" xmlns="http://www.w3.org/2000/svg">
<g clip-path="url(#clip0_120_2127)">
<path d="M22.5262 16.9501C22.4648 16.9013 18 13.6831 16.7745 13.9141C16.1895 14.0176 15.855 14.4166 15.1838 15.2153C15.0758 15.3443 14.8162 15.6533 14.6145 15.8731C14.1903 15.7347 13.7765 15.5663 13.3762 15.3691C11.3104 14.3633 9.64124 12.6942 8.6355 10.6283C8.43815 10.2281 8.26972 9.81432 8.1315 9.39006C8.352 9.18756 8.661 8.92806 8.793 8.81706C9.588 8.14956 9.98775 7.81506 10.0912 7.22856C10.3035 6.01356 7.0875 1.51806 7.05375 1.47756C6.90784 1.26911 6.71741 1.09571 6.49625 0.969888C6.2751 0.844069 6.02874 0.768982 5.775 0.750061C4.4715 0.750061 0.75 5.57781 0.75 6.39081C0.75 6.43806 0.81825 11.2411 6.741 17.2658C12.7597 23.1818 17.562 23.2501 17.6092 23.2501C18.423 23.2501 23.25 19.5286 23.25 18.2251C23.2313 17.9722 23.1567 17.7267 23.0315 17.5062C22.9063 17.2857 22.7338 17.0957 22.5262 16.9501Z" fill="#00695E"/>
</g>
<defs>
<clipPath id="clip0_120_2127">
<rect width="24" height="24" fill="white"/>
</clipPath>
</defs>
</svg>
