<svg width="24" height="24" viewBox="0 0 24 24" fill="none" xmlns="http://www.w3.org/2000/svg">
<g clip-path="url(#clip0_120_2133)">
<path d="M13.5755 4.94977H2.62582C1.18162 4.94977 0 6.13139 0 7.57559V16.4246C0 17.8688 1.18162 19.0504 2.62582 19.0504H13.5755C15.0197 19.0504 16.2013 17.8688 16.2013 16.4246V7.57559C16.2013 6.10513 15.0197 4.94977 13.5755 4.94977Z" fill="#00695E"/>
<path d="M22.0568 6.39395C21.8993 6.42021 21.7417 6.49898 21.6104 6.57776L17.5142 8.94099V15.0329L21.6367 17.3961C22.3982 17.8425 23.3435 17.5799 23.7899 16.8184C23.9212 16.5821 23.9999 16.3195 23.9999 16.0307V7.91692C23.9999 6.94537 23.0809 6.15762 22.0568 6.39395Z" fill="#00695E"/>
</g>
<defs>
<clipPath id="clip0_120_2133">
<rect width="24" height="24" fill="white"/>
</clipPath>
</defs>
</svg>
